<?xml version="1.0" encoding="UTF-8"?>
<svg xmlns="http://www.w3.org/2000/svg" viewBox="260 295 505 432" width="505" height="432">
  <title>Cat ears logo</title>
  <desc>Transparent-background vector trace of the supplied artwork.</desc>
  <path id="silhouette" fill="#303d55" fill-rule="evenodd" d="M 297.0 320.0 L 295.0 332.0 L 285.0 336.0 L 281.0 341.0 L 281.0 349.0 L 286.0 359.0 L 283.0 387.0 L 283.0 415.0 L 289.0 456.0 L 281.0 459.0 L 280.0 469.0 L 285.0 486.0 L 290.0 490.0 L 290.0 494.0 L 292.0 495.0 L 288.0 509.0 L 289.0 522.0 L 297.0 535.0 L 308.0 545.0 L 308.0 551.0 L 294.0 568.0 L 293.0 576.0 L 300.0 582.0 L 312.0 584.0 L 309.0 605.0 L 312.0 621.0 L 316.0 626.0 L 330.0 626.0 L 342.0 664.0 L 364.0 701.0 L 371.0 707.0 L 379.0 707.0 L 384.0 701.0 L 383.0 694.0 L 374.0 678.0 L 365.0 652.0 L 360.0 625.0 L 359.0 602.0 L 361.0 579.0 L 367.0 553.0 L 374.0 535.0 L 386.0 513.0 L 392.0 505.0 L 418.0 502.0 L 434.0 494.0 L 444.0 481.0 L 444.0 460.0 L 446.0 458.0 L 477.0 446.0 L 516.0 442.0 L 546.0 446.0 L 576.0 457.0 L 579.0 460.0 L 579.0 481.0 L 584.0 489.0 L 592.0 496.0 L 605.0 502.0 L 631.0 505.0 L 639.0 516.0 L 641.0 524.0 L 644.0 525.0 L 644.0 529.0 L 651.0 539.0 L 657.0 556.0 L 664.0 600.0 L 663.0 624.0 L 657.0 656.0 L 649.0 678.0 L 640.0 695.0 L 641.0 705.0 L 645.0 707.0 L 654.0 706.0 L 661.0 699.0 L 678.0 671.0 L 685.0 655.0 L 693.0 626.0 L 707.0 626.0 L 711.0 621.0 L 713.0 615.0 L 711.0 584.0 L 723.0 582.0 L 730.0 576.0 L 730.0 570.0 L 726.0 565.0 L 726.0 561.0 L 722.0 561.0 L 715.0 551.0 L 715.0 545.0 L 733.0 526.0 L 735.0 508.0 L 731.0 499.0 L 731.0 493.0 L 736.0 487.0 L 739.0 487.0 L 739.0 480.0 L 743.0 470.0 L 742.0 459.0 L 735.0 456.0 L 740.0 421.0 L 740.0 385.0 L 737.0 359.0 L 742.0 349.0 L 742.0 341.0 L 738.0 336.0 L 728.0 332.0 L 727.0 322.0 L 723.0 318.0 L 718.0 317.0 L 698.0 321.0 L 693.0 316.0 L 685.0 317.0 L 632.0 346.0 L 607.0 364.0 L 596.0 375.0 L 591.0 375.0 L 587.0 370.0 L 581.0 370.0 L 571.0 379.0 L 566.0 387.0 L 559.0 389.0 L 555.0 397.0 L 524.0 393.0 L 499.0 393.0 L 468.0 397.0 L 465.0 390.0 L 461.0 387.0 L 457.0 387.0 L 451.0 377.0 L 442.0 370.0 L 436.0 370.0 L 432.0 375.0 L 428.0 375.0 L 410.0 359.0 L 375.0 335.0 L 362.0 331.0 L 343.0 319.0 L 330.0 316.0 L 326.0 321.0 L 306.0 317.0 Z"/>
  <path id="ear-pink" fill="#efb8c6" fill-rule="evenodd" d="M 654.0 479.0 L 646.0 487.0 L 644.0 492.0 L 645.0 497.0 L 647.0 499.0 L 651.0 499.0 L 647.0 495.0 L 647.0 488.0 L 653.0 483.0 L 661.0 483.0 L 666.0 487.0 L 667.0 497.0 L 665.0 499.0 L 670.0 491.0 L 668.0 486.0 L 663.0 481.0 L 659.0 479.0 Z M 355.0 486.0 L 354.0 494.0 L 357.0 499.0 L 359.0 499.0 L 356.0 495.0 L 357.0 488.0 L 363.0 483.0 L 370.0 483.0 L 377.0 489.0 L 377.0 493.0 L 372.0 499.0 L 376.0 499.0 L 379.0 495.0 L 379.0 491.0 L 375.0 484.0 L 368.0 479.0 L 360.0 481.0 Z M 703.0 356.0 L 697.0 357.0 L 687.0 364.0 L 666.0 385.0 L 654.0 401.0 L 676.0 401.0 L 681.0 407.0 L 681.0 416.0 L 678.0 425.0 L 686.0 430.0 L 692.0 436.0 L 695.0 442.0 L 694.0 452.0 L 685.0 458.0 L 686.0 470.0 L 683.0 478.0 L 685.0 481.0 L 696.0 481.0 L 698.0 479.0 L 706.0 457.0 L 711.0 434.0 L 713.0 419.0 L 713.0 382.0 L 710.0 364.0 L 707.0 358.0 Z M 320.0 356.0 L 315.0 360.0 L 313.0 364.0 L 310.0 381.0 L 311.0 427.0 L 316.0 453.0 L 325.0 479.0 L 327.0 481.0 L 337.0 481.0 L 339.0 480.0 L 339.0 461.0 L 338.0 458.0 L 332.0 455.0 L 328.0 450.0 L 328.0 442.0 L 333.0 434.0 L 345.0 425.0 L 342.0 414.0 L 343.0 405.0 L 349.0 400.0 L 363.0 400.0 L 368.0 402.0 L 369.0 401.0 L 357.0 385.0 L 335.0 363.0 L 325.0 357.0 Z"/>
  <path id="ear-shadow" fill="#d78f9e" fill-rule="evenodd" d="M 645.0 493.0 L 646.0 498.0 L 648.0 500.0 L 650.0 500.0 L 650.0 498.0 L 648.0 496.0 L 648.0 489.0 L 654.0 484.0 L 662.0 484.0 L 667.0 488.0 L 668.0 497.0 L 669.0 497.0 L 670.0 489.0 L 664.0 482.0 L 660.0 480.0 L 655.0 480.0 L 650.0 484.0 Z M 356.0 487.0 L 355.0 495.0 L 358.0 500.0 L 359.0 499.0 L 357.0 496.0 L 357.0 490.0 L 364.0 483.0 L 369.0 483.0 L 378.0 490.0 L 378.0 494.0 L 374.0 500.0 L 377.0 500.0 L 380.0 496.0 L 380.0 492.0 L 376.0 485.0 L 369.0 480.0 L 365.0 480.0 L 361.0 482.0 Z M 340.0 409.0 L 339.0 411.0 L 339.0 421.0 L 342.0 427.0 L 346.0 426.0 L 346.0 423.0 L 343.0 415.0 L 343.0 410.0 Z M 685.0 406.0 L 681.0 406.0 L 682.0 408.0 L 682.0 417.0 L 680.0 421.0 L 681.0 427.0 L 683.0 427.0 L 686.0 419.0 L 686.0 408.0 Z M 691.0 364.0 L 688.0 365.0 L 679.0 374.0 L 678.0 378.0 L 674.0 379.0 L 673.0 387.0 L 668.0 392.0 L 666.0 392.0 L 664.0 390.0 L 656.0 402.0 L 673.0 401.0 L 675.0 396.0 L 680.0 395.0 L 685.0 382.0 L 685.0 379.0 L 691.0 374.0 L 694.0 369.0 Z M 334.0 364.0 L 332.0 368.0 L 332.0 371.0 L 336.0 378.0 L 341.0 383.0 L 344.0 392.0 L 351.0 398.0 L 352.0 401.0 L 367.0 402.0 L 368.0 399.0 L 361.0 390.0 L 359.0 390.0 L 357.0 392.0 L 352.0 391.0 L 352.0 385.0 L 354.0 382.0 L 350.0 378.0 L 348.0 378.0 L 347.0 375.0 L 336.0 364.0 Z"/>
  <path id="bows" fill="#f3f9fc" fill-rule="evenodd" d="M 698.0 495.0 L 682.0 494.0 L 676.0 507.0 L 671.0 512.0 L 663.0 517.0 L 664.0 528.0 L 668.0 539.0 L 678.0 551.0 L 683.0 553.0 L 693.0 550.0 L 700.0 543.0 L 703.0 536.0 L 718.0 522.0 L 721.0 516.0 L 720.0 507.0 L 715.0 502.0 Z M 310.0 501.0 L 304.0 506.0 L 302.0 512.0 L 306.0 523.0 L 318.0 533.0 L 324.0 544.0 L 330.0 550.0 L 337.0 553.0 L 345.0 551.0 L 352.0 544.0 L 356.0 537.0 L 361.0 517.0 L 356.0 515.0 L 347.0 507.0 L 341.0 494.0 L 325.0 495.0 Z M 625.0 430.0 L 620.0 432.0 L 613.0 439.0 L 609.0 449.0 L 598.0 459.0 L 593.0 469.0 L 593.0 475.0 L 596.0 481.0 L 607.0 487.0 L 621.0 490.0 L 632.0 490.0 L 633.0 485.0 L 638.0 477.0 L 643.0 472.0 L 650.0 468.0 L 650.0 464.0 L 647.0 453.0 L 640.0 439.0 L 633.0 432.0 Z M 390.0 432.0 L 384.0 438.0 L 377.0 451.0 L 373.0 468.0 L 379.0 471.0 L 387.0 479.0 L 392.0 490.0 L 402.0 490.0 L 413.0 488.0 L 426.0 482.0 L 430.0 476.0 L 430.0 468.0 L 426.0 460.0 L 415.0 450.0 L 411.0 441.0 L 403.0 432.0 L 398.0 430.0 Z M 664.0 409.0 L 647.0 415.0 L 641.0 421.0 L 654.0 436.0 L 661.0 453.0 L 664.0 467.0 L 674.0 474.0 L 676.0 471.0 L 676.0 465.0 L 672.0 457.0 L 672.0 453.0 L 676.0 450.0 L 684.0 448.0 L 686.0 445.0 L 678.0 436.0 L 666.0 430.0 L 666.0 424.0 L 670.0 418.0 L 672.0 411.0 L 670.0 409.0 Z M 359.0 409.0 L 352.0 410.0 L 353.0 417.0 L 357.0 424.0 L 357.0 430.0 L 345.0 436.0 L 338.0 443.0 L 339.0 448.0 L 351.0 452.0 L 351.0 457.0 L 347.0 465.0 L 347.0 470.0 L 349.0 474.0 L 359.0 468.0 L 362.0 454.0 L 367.0 440.0 L 375.0 428.0 L 382.0 421.0 L 376.0 415.0 Z"/>
  <path id="bow-shadow" fill="#cbd2dc" fill-rule="evenodd" d="M 665.0 517.0 L 664.0 518.0 L 664.0 523.0 L 665.0 524.0 L 665.0 529.0 L 667.0 535.0 L 673.0 546.0 L 678.0 551.0 L 685.0 554.0 L 690.0 553.0 L 694.0 551.0 L 700.0 545.0 L 702.0 542.0 L 702.0 540.0 L 695.0 543.0 L 689.0 543.0 L 683.0 539.0 L 675.0 530.0 L 673.0 524.0 L 669.0 518.0 L 669.0 516.0 Z M 355.0 515.0 L 355.0 519.0 L 351.0 529.0 L 339.0 542.0 L 337.0 543.0 L 328.0 543.0 L 323.0 540.0 L 326.0 546.0 L 331.0 551.0 L 335.0 553.0 L 344.0 553.0 L 346.0 552.0 L 353.0 545.0 L 358.0 535.0 L 360.0 529.0 L 360.0 525.0 L 361.0 524.0 L 361.0 518.0 Z M 678.0 506.0 L 674.0 512.0 L 683.0 520.0 L 689.0 521.0 L 690.0 520.0 L 690.0 515.0 L 680.0 506.0 Z M 347.0 506.0 L 345.0 506.0 L 336.0 514.0 L 335.0 519.0 L 337.0 521.0 L 341.0 521.0 L 351.0 512.0 Z M 626.0 466.0 L 626.0 471.0 L 636.0 480.0 L 638.0 480.0 L 642.0 474.0 L 634.0 466.0 L 630.0 464.0 Z M 397.0 464.0 L 393.0 465.0 L 383.0 474.0 L 388.0 481.0 L 399.0 471.0 L 400.0 468.0 Z M 428.0 463.0 L 426.0 464.0 L 420.0 474.0 L 416.0 477.0 L 403.0 482.0 L 391.0 484.0 L 392.0 490.0 L 393.0 491.0 L 409.0 490.0 L 419.0 487.0 L 428.0 482.0 L 431.0 476.0 L 431.0 470.0 Z M 598.0 462.0 L 595.0 467.0 L 594.0 475.0 L 596.0 480.0 L 600.0 484.0 L 606.0 487.0 L 616.0 490.0 L 622.0 490.0 L 623.0 491.0 L 632.0 491.0 L 633.0 490.0 L 634.0 484.0 L 619.0 481.0 L 609.0 476.0 L 607.0 476.0 L 601.0 469.0 L 599.0 465.0 L 599.0 462.0 Z"/>
  <path id="knots" fill="#dc675f" fill-rule="evenodd" d="M 656.0 479.0 L 653.0 480.0 L 647.0 486.0 L 645.0 490.0 L 645.0 496.0 L 650.0 502.0 L 654.0 504.0 L 659.0 504.0 L 665.0 500.0 L 669.0 494.0 L 669.0 489.0 L 664.0 482.0 L 661.0 480.0 Z M 365.0 479.0 L 362.0 480.0 L 356.0 485.0 L 354.0 489.0 L 354.0 492.0 L 359.0 501.0 L 364.0 504.0 L 369.0 504.0 L 377.0 498.0 L 378.0 489.0 L 370.0 480.0 Z"/>
  <path id="knot-highlight" fill="#ef756a" fill-rule="evenodd" d="M 660.0 485.0 L 656.0 485.0 L 653.0 487.0 L 653.0 492.0 L 652.0 493.0 L 650.0 493.0 L 649.0 495.0 L 651.0 499.0 L 654.0 499.0 L 653.0 495.0 L 655.0 494.0 L 655.0 492.0 L 656.0 491.0 L 659.0 491.0 Z M 361.0 486.0 L 358.0 490.0 L 359.0 492.0 L 364.0 491.0 L 365.0 490.0 L 368.0 490.0 L 370.0 495.0 L 369.0 499.0 L 371.0 500.0 L 375.0 497.0 L 374.0 492.0 L 373.0 491.0 L 373.0 488.0 L 369.0 484.0 L 364.0 484.0 Z"/>
</svg>